HIERARCHY
ROOT Hips
{
	OFFSET 0.00000 0.00000 0.00000
	CHANNELS 6 Xposition Yposition Zposition Zrotation Yrotation Xrotation 
	JOINT LHipJoint
	{
		OFFSET 0 0 0
		CHANNELS 3 Zrotation Yrotation Xrotation
		JOINT LeftUpLeg
		{
			OFFSET 2.36090 -1.39315 1.24752
			CHANNELS 3 Zrotation Yrotation Xrotation
			JOINT LeftLeg
			{
				OFFSET 2.06810 -5.68207 0.00000
				CHANNELS 3 Zrotation Yrotation Xrotation
				JOINT LeftFoot
				{
					OFFSET 2.46631 -6.77613 0.00000
					CHANNELS 3 Zrotation Yrotation Xrotation
					JOINT LeftToeBase
					{
						OFFSET 0.26031 -0.71520 1.99545
						CHANNELS 3 Zrotation Yrotation Xrotation
						End Site
						{
							OFFSET 0.00000 -0.00000 1.05957
						}
					}
				}
			}
		}
	}
	JOINT RHipJoint
	{
		OFFSET 0 0 0
		CHANNELS 3 Zrotation Yrotation Xrotation
		JOINT RightUpLeg
		{
			OFFSET -2.25243 -1.39315 1.24752
			CHANNELS 3 Zrotation Yrotation Xrotation
			JOINT RightLeg
			{
				OFFSET -2.17343 -5.97145 0.00000
				CHANNELS 3 Zrotation Yrotation Xrotation
				JOINT RightFoot
				{
					OFFSET -2.52372 -6.93386 0.00000
					CHANNELS 3 Zrotation Yrotation Xrotation
					JOINT RightToeBase
					{
						OFFSET -0.22538 -0.61923 2.11447
						CHANNELS 3 Zrotation Yrotation Xrotation
						End Site
						{
							OFFSET -0.00000 -0.00000 1.10506
						}
					}
				}
			}
		}
	}
	JOINT LowerBack
	{
		OFFSET 0 0 0
		CHANNELS 3 Zrotation Yrotation Xrotation
		JOINT Spine
		{
			OFFSET 0.01594 2.13103 0.08007
			CHANNELS 3 Zrotation Yrotation Xrotation
			JOINT Spine1
			{
				OFFSET 0.01393 2.09723 0.18338
				CHANNELS 3 Zrotation Yrotation Xrotation
				JOINT Neck
				{
					OFFSET 0 0 0
					CHANNELS 3 Zrotation Yrotation Xrotation
					JOINT Neck1
					{
						OFFSET 0.05351 1.38915 0.32494
						CHANNELS 3 Zrotation Yrotation Xrotation
						JOINT Head
						{
							OFFSET 0.00711 1.45992 -0.21666
							CHANNELS 3 Zrotation Yrotation Xrotation
							End Site
							{
								OFFSET -0.00433 1.47702 -0.11056
							}
						}
					}
				}
				JOINT LeftShoulder
				{
					OFFSET 0 0 0
					CHANNELS 3 Zrotation Yrotation Xrotation
					JOINT LeftArm
					{
						OFFSET 2.87198 0.92249 0.11132
						CHANNELS 3 Zrotation Yrotation Xrotation
						JOINT LeftForeArm
						{
							OFFSET 5.52731 -0.00000 0.00000
							CHANNELS 3 Zrotation Yrotation Xrotation
							JOINT LeftHand
							{
								OFFSET 3.11059 -0.00000 0.00000
								CHANNELS 3 Zrotation Yrotation Xrotation
								JOINT LeftFingerBase
								{
									OFFSET 0 0 0
									CHANNELS 3 Zrotation Yrotation Xrotation
									JOINT LeftHandIndex1
									{
										OFFSET 0.41963 -0.00000 0.00000
										CHANNELS 3 Zrotation Yrotation Xrotation
										End Site
										{
											OFFSET 0.33831 -0.00000 0.00000
										}
									}
								}
								JOINT LThumb
								{
									OFFSET 0 0 0
									CHANNELS 3 Zrotation Yrotation Xrotation
									End Site
									{
										OFFSET 0.34348 -0.00000 0.34348
									}
								}
							}
						}
					}
				}
				JOINT RightShoulder
				{
					OFFSET 0 0 0
					CHANNELS 3 Zrotation Yrotation Xrotation
					JOINT RightArm
					{
						OFFSET -2.94710 0.68072 0.32187
						CHANNELS 3 Zrotation Yrotation Xrotation
						JOINT RightForeArm
						{
							OFFSET -5.25396 -0.00000 -0.00000
							CHANNELS 3 Zrotation Yrotation Xrotation
							JOINT RightHand
							{
								OFFSET -3.10567 -0.00000 0.00000
								CHANNELS 3 Zrotation Yrotation Xrotation
								JOINT RightFingerBase
								{
									OFFSET 0 0 0
									CHANNELS 3 Zrotation Yrotation Xrotation
									JOINT RightHandIndex1
									{
										OFFSET -0.49868 -0.00000 0.00000
										CHANNELS 3 Zrotation Yrotation Xrotation
										End Site
										{
											OFFSET -0.40204 -0.00000 0.00000
										}
									}
								}
								JOINT RThumb
								{
									OFFSET 0 0 0
									CHANNELS 3 Zrotation Yrotation Xrotation
									End Site
									{
										OFFSET -0.40818 -0.00000 0.40818
									}
								}
							}
						}
					}
				}
			}
		}
	}
}
MOTION
Frames: 12
Frame Time: .0083333
-4.3349 15.2196 40.6411 0 0 0 0 0 0 -21 0 0 0 0 0 0 0 0 0 0 0 0 0 0 21 0 0 0 0 0 0 0 0 0 0 0 0 0 0 0 0 0 0 0 0 0 0 -16 0 0 21 0 0 11 0 0 0 -8 0 0 0 0 0 0 0 0 0 0 0 0 0 0 0 0 0 0 0 0 8 0 0 0 0 0 0 0 0 0 0 0 0 0 0 0 0 0
-4.3349 15.2196 40.6411 178.8880 8.0230 -161.1730 0.0000 0.0000 0.0000 -20.3018 -18.1640 -27.8464 1.4737 7.6709 21.7188 0.1826 4.4537 -10.9519 0.1815 -2.7441 -7.5672 0.0000 0.0000 0.0000 17.6752 18.6333 -26.1040 -4.0893 -12.2783 36.7238 -0.8073 -12.5842 -25.7874 -0.4667 4.3816 -12.1528 -5.1536 2.1431 -20.1149 -3.1194 4.9718 -4.6378 0.8378 2.7305 6.0658 6.5640 6.5858 -27.1781 -1.9886 6.9315 24.9691 -0.5483 3.2991 13.2125 0.0000 -0.0000 0.0000 -74.9557 -0.2214 48.8000 43.7110 -50.1212 -21.2449 -0.0000 0.0000 -37.6230 26.0094 1.8718 0.9131 -7.1250 0.0000 -0.0000 -0.4598 32.0621 0.1456 0.0000 -0.0000 0.0000 80.8636 5.1146 54.7805 -77.6524 59.4160 -49.3277 0.0000 -0.0000 -16.8282 -18.0036 -19.3432 6.1439 7.1250 -0.0000 -0.0000 10.2082 -49.9633 -1.2606
-4.3223 15.2268 40.6557 178.8100 8.0984 -161.1600 0.0000 0.0000 0.0000 -20.3373 -18.0870 -27.7289 1.4271 7.5539 21.3672 0.1705 4.5553 -10.8107 0.1873 -2.7877 -7.6881 0.0000 0.0000 0.0000 17.6231 18.7857 -26.1346 -4.0788 -12.2645 36.6743 -0.7788 -12.7475 -25.7211 -0.4869 4.4741 -12.4144 -5.0625 2.1001 -19.9051 -3.0276 4.8881 -4.8849 0.8433 2.7175 5.6907 6.6021 6.7577 -26.7384 -2.0330 7.1928 25.0838 -0.5319 3.4067 13.1912 -0.0000 0.0000 0.0000 -75.3646 0.3257 48.3565 43.5346 -50.0301 -21.1096 -0.0000 0.0000 -37.5913 26.3400 1.8647 0.9230 -7.1250 0.0000 -0.0000 -0.1935 32.0602 0.0613 -0.0000 0.0000 0.0000 80.7823 4.7331 55.0100 -77.0617 59.3579 -48.8192 0.0000 -0.0000 -16.8812 -18.1066 -18.2351 5.8420 7.1250 -0.0000 -0.0000 9.7560 -48.8500 -0.9345
-4.3091 15.2330 40.6697 178.7210 8.1552 -161.1630 0.0000 0.0000 0.0000 -20.3549 -18.1155 -27.6605 1.4061 7.5006 21.2072 0.1602 4.7067 -10.7532 0.2017 -2.8917 -7.9774 0.0000 0.0000 0.0000 17.5642 19.0067 -26.0922 -4.0633 -12.2441 36.6012 -0.7431 -12.9675 -25.6552 -0.4704 4.3988 -12.2015 -4.7884 2.2008 -20.0976 -3.1787 5.0000 -4.8816 0.5684 2.7755 5.8282 6.9867 6.8625 -26.2470 -2.1304 7.2355 24.9770 -0.6368 3.4522 13.0777 -0.0000 -0.0000 0.0000 -75.3621 0.3825 48.1838 43.2938 -49.9047 -20.9252 -0.0000 0.0000 -37.6682 26.0981 1.6290 0.7978 -7.1250 0.0000 -0.0000 -0.3843 31.7934 0.1242 -0.0000 -0.0000 0.0000 81.0500 4.5828 54.7820 -76.4927 59.2993 -48.3299 0.0000 -0.0000 -16.1945 -17.2992 -19.0089 5.7925 7.1250 -0.0000 -0.0000 10.7738 -49.5145 -1.2118
-4.2963 15.2359 40.6749 178.7790 8.5433 -161.2610 0.0000 0.0000 0.0000 -20.2541 -18.1367 -27.3707 1.3866 7.4504 21.0569 0.1429 5.3109 -11.0067 0.2080 -2.9362 -8.1012 0.0000 0.0000 0.0000 17.6091 19.4546 -25.8653 -4.0459 -12.2213 36.5193 -0.7222 -13.0439 -25.5646 -0.4586 4.3443 -12.0474 -4.5477 2.3098 -20.2476 -3.0966 5.0881 -4.8584 0.5527 2.8126 5.9409 7.0202 6.9310 -25.9293 -2.1394 7.3385 24.9533 -0.6348 3.4995 13.0140 -0.0000 0.0000 0.0000 -75.7440 0.6590 47.7286 42.8665 -49.6794 -20.5989 -0.0000 0.0000 -37.6608 26.2293 1.6123 0.7942 -7.1250 0.0000 -0.0000 -0.2787 31.7769 0.0902 -0.0000 0.0000 0.0000 80.8949 4.4175 55.1637 -75.5823 59.1998 -47.5474 0.0000 -0.0000 -16.6487 -17.5157 -19.4626 6.0029 7.1250 -0.0000 -0.0000 10.7184 -50.0077 -1.3367
-4.2824 15.2402 40.6849 178.7950 8.7964 -161.3010 0.0000 0.0000 0.0000 -20.1687 -18.1562 -27.2399 1.3761 7.4234 20.9758 0.1300 5.7083 -11.1687 0.2184 -3.0088 -8.3032 0.0000 0.0000 0.0000 17.6337 19.8181 -25.7223 -4.0262 -12.1951 36.4258 -0.6943 -13.1785 -25.4766 -0.4513 4.3098 -11.9499 -4.3480 2.3810 -20.3032 -3.0487 5.1413 -4.9163 0.5064 2.8436 5.9178 7.1360 7.0163 -25.5322 -2.1682 7.4405 24.9540 -0.6563 3.5509 12.9499 0.0000 -0.0000 0.0000 -76.0451 0.9700 47.3692 42.4988 -49.4826 -20.3190 -0.0000 0.0000 -37.6713 26.2788 1.5574 0.7688 -7.1250 0.0000 -0.0000 -0.2382 31.7164 0.0774 0.0000 -0.0000 0.0000 80.8283 4.1671 55.3492 -74.8431 59.1139 -46.9128 0.0000 -0.0000 -16.6780 -17.3755 -19.5784 5.9859 7.1250 -0.0000 -0.0000 10.8931 -50.1027 -1.3846
-4.2683 15.2440 40.6948 178.8350 9.0545 -161.3320 0.0000 0.0000 0.0000 -20.0458 -18.2022 -27.1488 1.3752 7.4212 20.9692 0.1174 6.1301 -11.3844 0.2311 -3.0944 -8.5417 0.0000 0.0000 0.0000 17.6821 20.1995 -25.5659 -4.0024 -12.1636 36.3134 -0.6664 -13.3115 -25.3874 -0.4423 4.2674 -11.8303 -4.1474 2.4457 -20.3474 -2.9798 5.1835 -4.9869 0.4782 2.8702 5.8735 7.2291 7.0860 -25.1282 -2.1809 7.5247 24.9667 -0.6718 3.5942 12.8866 0.0000 0.0000 0.0000 -76.3612 1.3136 47.0256 42.0793 -49.2547 -20.0006 -0.0000 0.0000 -37.6831 26.3279 1.5341 0.7590 -7.1250 0.0000 -0.0000 -0.1985 31.6912 0.0646 0.0000 0.0000 0.0000 80.7198 3.8774 55.5561 -74.1076 59.0238 -46.2819 0.0000 -0.0000 -16.7425 -17.2439 -19.6790 5.9671 7.1250 -0.0000 -0.0000 11.0547 -50.1835 -1.4277
-4.2546 15.2479 40.7049 178.8900 9.2951 -161.3440 0.0000 0.0000 0.0000 -19.8862 -18.3121 -27.0610 1.3750 7.4205 20.9671 0.1015 6.6040 -11.6186 0.2449 -3.1848 -8.7937 0.0000 0.0000 0.0000 17.7463 20.5725 -25.4200 -3.9768 -12.1294 36.1913 -0.6394 -13.4412 -25.3022 -0.4326 4.2207 -11.6985 -3.9572 2.4875 -20.3807 -2.8734 5.1951 -5.0733 0.4868 2.8830 5.8030 7.2694 7.1441 -24.7165 -2.1850 7.6112 24.9928 -0.6758 3.6339 12.8242 -0.0000 0.0000 0.0000 -76.7215 1.7016 46.6876 41.6233 -49.0027 -19.6557 -0.0000 0.0000 -37.6911 26.4032 1.5372 0.7630 -7.1250 0.0000 -0.0000 -0.1381 31.6958 0.0450 -0.0000 0.0000 0.0000 80.5380 3.5507 55.7960 -73.3942 58.9320 -45.6705 0.0000 -0.0000 -16.8595 -17.1685 -19.6667 5.9361 7.1250 -0.0000 -0.0000 11.1231 -50.1592 -1.4300
-4.2410 15.2520 40.7159 178.9470 9.4972 -161.3300 0.0000 0.0000 0.0000 -19.7007 -18.4800 -27.0060 1.3771 7.4261 20.9840 0.0835 7.0912 -11.8577 0.2611 -3.2874 -9.0799 0.0000 0.0000 0.0000 17.8136 20.9197 -25.3015 -3.9494 -12.0928 36.0610 -0.6135 -13.5699 -25.2259 -0.4195 4.1574 -11.5199 -3.7755 2.5083 -20.4110 -2.7508 5.1832 -5.1836 0.5106 2.8870 5.7032 7.2908 7.1880 -24.2532 -2.1909 7.6873 25.0182 -0.6816 3.6667 12.7500 -0.0000 0.0000 0.0000 -77.0866 2.1333 46.3993 41.1473 -48.7351 -19.2972 -0.0000 0.0000 -37.7022 26.4850 1.5572 0.7757 -7.1250 0.0000 -0.0000 -0.0727 31.7194 0.0236 -0.0000 0.0000 0.0000 80.3146 3.1654 56.0255 -72.7346 58.8431 -45.1058 0.0000 -0.0000 -16.9689 -17.0826 -19.5579 5.8736 7.1250 -0.0000 -0.0000 11.1680 -50.0358 -1.4017
-4.2282 15.2559 40.7267 178.9990 9.6713 -161.3060 0.0000 0.0000 0.0000 -19.5047 -18.7096 -26.9476 1.3793 7.4318 21.0011 0.0623 7.6130 -12.1090 0.2780 -3.3912 -9.3698 0.0000 0.0000 0.0000 17.8776 21.2319 -25.1989 -3.9221 -12.0561 35.9306 -0.5898 -13.6908 -25.1599 -0.4039 4.0801 -11.3020 -3.5773 2.5258 -20.4805 -2.6380 5.1636 -5.2501 0.5170 2.8828 5.6739 7.3262 7.2416 -23.8948 -2.2061 7.7693 25.0538 -0.6889 3.7020 12.7016 0.0000 0.0000 0.0000 -77.4231 2.4846 46.1506 40.6494 -48.4500 -18.9238 -0.0000 0.0000 -37.7242 26.5814 1.5807 0.7908 -7.1250 0.0000 -0.0000 0.0044 31.7472 -0.0014 0.0000 0.0000 0.0000 80.0843 2.8543 56.2293 -72.0996 58.7540 -44.5627 0.0000 -0.0000 -17.1232 -17.0247 -19.5547 5.8517 7.1250 -0.0000 -0.0000 11.2225 -50.0235 -1.4053
-4.2157 15.2593 40.7372 179.0390 9.8303 -161.2770 0.0000 0.0000 0.0000 -19.3276 -18.9231 -26.9014 1.3803 7.4342 21.0081 0.0412 8.1038 -12.3538 0.2969 -3.5038 -9.6847 0.0000 0.0000 0.0000 17.9257 21.5190 -25.1169 -3.8975 -12.0228 35.8127 -0.5706 -13.7929 -25.1103 -0.3852 3.9859 -11.0369 -3.4042 2.5317 -20.5459 -2.5148 5.1302 -5.2923 0.5458 2.8693 5.6658 7.3350 7.3013 -23.6846 -2.2179 7.8613 25.1336 -0.6840 3.7386 12.6987 0.0000 -0.0000 0.0000 -77.7634 2.7824 45.9476 40.1360 -48.1502 -18.5405 -0.0000 0.0000 -37.7458 26.7014 1.5814 0.7952 -7.1250 0.0000 -0.0000 0.1007 31.7497 -0.0326 0.0000 -0.0000 0.0000 79.8133 2.5895 56.4175 -71.4981 58.6662 -44.0487 0.0000 -0.0000 -17.2957 -16.9777 -19.6140 5.8516 7.1250 -0.0000 -0.0000 11.2883 -50.0759 -1.4284
-4.2027 15.2623 40.7475 179.0560 9.9871 -161.2480 0.0000 0.0000 0.0000 -19.1775 -19.1263 -26.8487 1.3784 7.4293 20.9935 0.0192 8.5840 -12.5952 0.3182 -3.6262 -10.0274 0.0000 0.0000 0.0000 17.9469 21.7937 -25.0548 -3.8779 -11.9962 35.7185 -0.5560 -13.8770 -25.0805 -0.3663 3.8879 -10.7614 -3.2446 2.5361 -20.6373 -2.4130 5.0991 -5.3077 0.5627 2.8545 5.7011 7.3780 7.3683 -23.5083 -2.2396 7.9523 25.2020 -0.6875 3.7771 12.7001 0.0000 0.0000 0.0000 -78.0451 3.0348 45.8159 39.6373 -47.8535 -18.1699 -0.0000 0.0000 -37.7841 26.8168 1.5891 0.8031 -7.1250 0.0000 -0.0000 0.1933 31.7602 -0.0626 0.0000 0.0000 0.0000 79.5606 2.3676 56.5822 -70.9209 58.5789 -43.5558 0.0000 -0.0000 -17.4800 -16.9540 -19.6561 5.8549 7.1250 -0.0000 -0.0000 11.3259 -50.1146 -1.4441
